# xmcd
#
# Track frame offsets:
#	150
#	22057
#	44745
#	61327
#	77085
#	93262
#	112929
#	127395
#	144287
#	170492
#
# Disc length: 2437 seconds
#
# Revision: 0
# Processed by: cddbd v1.4PL0 Copyright (c) Steve Scherf et al.
# Submitted via: dBpowerAMP V4.0
#
DISCID=8909830a
DTITLE=Various Artist - Texas Folks
DYEAR=1900
DGENRE=
TTITLE0=Mr. Bojangles-Jerry Jeff Walker
TTITLE1=Love at the Five and Dime-Nanci Griffith
TTITLE2=The Front Porch Song-Robert Earl Keen
TTITLE3=Dallas-Jimmie Dale Gilmore
TTITLE4=She Never Spoke Spanish To Me-Joe Ely
TTITLE5=Pancho and Lefty-Townes Van Zandt
TTITLE6=Old Friends-Guy Clark
TTITLE7=Sold American-Kinky Friedman
TTITLE8=London Homesick Blues-Gary P. Nunn
TTITLE9=Crazy Little Mama-Alvin Crow and the Pleasant Valley Boys
EXTD=
EXTT0=
EXTT1=
EXTT2=
EXTT3=
EXTT4=
EXTT5=
EXTT6=
EXTT7=
EXTT8=
EXTT9=
PLAYORDER=
